<svg id="visual" viewBox="0 0 960 540" width="960" height="540" xmlns="http://www.w3.org/2000/svg" xmlns:xlink="http://www.w3.org/1999/xlink" version="1.1"><rect x="0" y="0" width="960" height="540" fill="#7cb2e2"></rect><path d="M0 338L22.8 340C45.7 342 91.3 346 137 345.3C182.7 344.7 228.3 339.3 274 333.5C319.7 327.7 365.3 321.3 411.2 319.2C457 317 503 319 548.8 324.2C594.7 329.3 640.3 337.7 686 347C731.7 356.3 777.3 366.7 823 373.7C868.7 380.7 914.3 384.3 937.2 386.2L960 388L960 541L937.2 541C914.3 541 868.7 541 823 541C777.3 541 731.7 541 686 541C640.3 541 594.7 541 548.8 541C503 541 457 541 411.2 541C365.3 541 319.7 541 274 541C228.3 541 182.7 541 137 541C91.3 541 45.7 541 22.8 541L0 541Z" fill="#91cbf0"></path><path d="M0 395L22.8 390.3C45.7 385.7 91.3 376.3 137 376.5C182.7 376.7 228.3 386.3 274 387.3C319.7 388.3 365.3 380.7 411.2 377.2C457 373.7 503 374.3 548.8 375.5C594.7 376.7 640.3 378.3 686 386.3C731.7 394.3 777.3 408.7 823 409C868.7 409.3 914.3 395.7 937.2 388.8L960 382L960 541L937.2 541C914.3 541 868.7 541 823 541C777.3 541 731.7 541 686 541C640.3 541 594.7 541 548.8 541C503 541 457 541 411.2 541C365.3 541 319.7 541 274 541C228.3 541 182.7 541 137 541C91.3 541 45.7 541 22.8 541L0 541Z" fill="#afd8f4"></path><path d="M0 458L22.8 449.8C45.7 441.7 91.3 425.3 137 424.3C182.7 423.3 228.3 437.7 274 436.8C319.7 436 365.3 420 411.2 420.7C457 421.3 503 438.7 548.8 441.7C594.7 444.7 640.3 433.3 686 432.3C731.7 431.3 777.3 440.7 823 446.7C868.7 452.7 914.3 455.3 937.2 456.7L960 458L960 541L937.2 541C914.3 541 868.7 541 823 541C777.3 541 731.7 541 686 541C640.3 541 594.7 541 548.8 541C503 541 457 541 411.2 541C365.3 541 319.7 541 274 541C228.3 541 182.7 541 137 541C91.3 541 45.7 541 22.8 541L0 541Z" fill="#cbe5f8"></path><path d="M0 453L22.8 455.8C45.7 458.7 91.3 464.3 137 468.5C182.7 472.7 228.3 475.3 274 469.7C319.7 464 365.3 450 411.2 450.5C457 451 503 466 548.8 467C594.7 468 640.3 455 686 451C731.7 447 777.3 452 823 452.8C868.7 453.7 914.3 450.3 937.2 448.7L960 447L960 541L937.2 541C914.3 541 868.7 541 823 541C777.3 541 731.7 541 686 541C640.3 541 594.7 541 548.8 541C503 541 457 541 411.2 541C365.3 541 319.7 541 274 541C228.3 541 182.7 541 137 541C91.3 541 45.7 541 22.8 541L0 541Z" fill="#e5f2fc"></path><path d="M0 507L22.8 504.7C45.7 502.3 91.3 497.7 137 499.2C182.7 500.7 228.3 508.3 274 508.3C319.7 508.3 365.3 500.7 411.2 493.8C457 487 503 481 548.8 479.7C594.7 478.3 640.3 481.7 686 487.3C731.7 493 777.3 501 823 500C868.7 499 914.3 489 937.2 484L960 479L960 541L937.2 541C914.3 541 868.7 541 823 541C777.3 541 731.7 541 686 541C640.3 541 594.7 541 548.8 541C503 541 457 541 411.2 541C365.3 541 319.7 541 274 541C228.3 541 182.7 541 137 541C91.3 541 45.7 541 22.8 541L0 541Z" fill="#ffffff"></path></svg>